<?xml version="1.0" encoding="utf-8"?>
<!-- Generator: Adobe Illustrator 21.1.0, SVG Export Plug-In . SVG Version: 6.00 Build 0)  -->
<svg version="1.1" id="Calque_1" xmlns="http://www.w3.org/2000/svg" xmlns:xlink="http://www.w3.org/1999/xlink" x="0px" y="0px"
	 viewBox="0 0 142.5 244" style="enable-background:new 0 0 142.5 244;" xml:space="preserve">
<style type="text/css">
	.st0{fill:#FFFF2C;}
</style>
<g id="Calque_2">
	<g>
		<g>
			<path class="st0" d="M60.3,46.8c-0.3,8.5-2.1,16.8-5.5,24.6c-3.1,7,7.3,13.1,10.4,6.1c4.3-9.8,6.8-19.9,7.2-30.6
				C72.6,39.1,60.6,39.1,60.3,46.8L60.3,46.8z"/>
		</g>
	</g>
	<g>
		<g>
			<path class="st0" d="M47,52.8c-1.2,10.5-2,21-2.2,31.5c-0.2,9.5-1.2,20.1,2,29.2c2.3,6.6,11.1,5.1,11.8-1.6
				c2.4-22.5,3.1-45.1,2.1-67.7c-0.3-6.5-10.1-8.4-11.8-1.6c-1.8,7.5-2.4,15.2-2.6,23c-0.1,6.6-0.6,12.6,3.6,18
				c3,3.9,8.7,1.1,10-2.6c2.3-6.4,0.7-14.2-4.4-18.8c-6.7-6-12.3,0.8-13.3,7.6c-0.9,6.7,0.6,15.6,6.5,19.8
				c5.6,3.9,13.8,1.7,15.4-5.3c1.8-7.5-9.8-10.7-11.6-3.2c2.9-0.1,3.8-0.8,2.5-2.3c-0.4-1-0.7-2-0.9-3c-0.3-1.6,1-6.3-1.2-4.7
				c-1.5,0.2-3.1,0.4-4.6,0.6c-0.6-0.1,0.5,1.7,0.7,2.4c0.2,1.3-0.2,2.5-0.6,3.8c3.3-0.9,6.7-1.8,10-2.6c-0.6-0.8-0.1-3.9-0.1-4.8
				c0-2.8,0-5.6,0.1-8.5c0.2-5.4,0.8-10.7,2-16c-3.9-0.5-7.9-1.1-11.8-1.6c1,22.6,0.3,45.2-2.1,67.7c3.9-0.5,7.9-1.1,11.8-1.6
				c-3-8.6-1.8-19-1.6-27.9c0.3-9.9,1.1-19.8,2.2-29.6C59.9,45.2,47.9,45.2,47,52.8L47,52.8z"/>
		</g>
	</g>
	<g>
		<g>
			<path class="st0" d="M59.7,57.3c-0.4,10.5-0.2,20.9,0.6,31.3c0.4,4.5,6.7,8.7,10.2,4.2c10-12.8,12.5-28.2,14.3-44
				c0.7-5.8-8.9-8.4-11.2-3C67.7,59.7,64,74.2,63.1,89.2c-0.7,11.2-1.9,27.5,9.5,33.9c3.1,1.7,8.2,0.3,8.8-3.6
				c2-12.1,3-24.3,2.8-36.5c-0.2-9.4,0.1-21.1-7.9-27.6c-2.7-2.2-5.8-2.2-8.5,0c-8.7,7.3-11.7,19.9-13.9,30.5
				c-2.6,12.6-3.3,25.5-2.1,38.2c0.5,5.2,8.6,9.1,11.2,3c5.2-12,6.5-24.6,3.5-37.4c-1.7-7.1-11.1-4.7-11.8,1.6
				c-1.8,16.1,2,32.4,10.6,46.1c3.1-2.4,6.3-4.8,9.4-7.3c-3.8-4.1-8.1-7.5-13-10.4c-3-1.8-6.3-0.4-8.2,2.2
				c-3.3,4.3-4.8,9.5-4.5,14.9c0.1,2.4,1.8,5.3,4.4,5.8c10.6,1.9,21.2,2.6,31.9,1.7c3.5-0.3,5.7-2.5,6-6c0.6-6-2.3-12.5,0.1-18.2
				c2.5-5.9,7.6-11.2,11.6-16.2c3.7-4.6,8.3-9,10.9-14.3c2.5-5.3,2.4-11.2,2.3-16.9c-0.3-20-4.1-44.1-24.1-53.9
				c-9-4.4-19.2-5.2-29-3.2C52.3,17.9,44.7,24,36.5,30.9c-4.2,3.6-9.3,6.1-13,10.4c-3.5,4-5.9,8.9-7.5,14
				c-2.8,9.2-4.1,20.5-2.9,30.1c0.6,5.4,2.6,10.7,6.9,14.3c4.6,3.8,10.7,5.1,15.2,9.3c8.7,8,13,19.4,15.9,30.6
				c1,3.8,5.5,5.5,8.8,3.6c8.6-4.8,15.7-11.5,21.2-19.7c-2.7,0.7-5.5,1.4-8.2,2.2c0.5,0.3,1.5,0.7,0.4,1.1c2.5,1.9,5.1,3.9,7.6,5.8
				c1.1-14.4,4.7-28.6,10.8-41.8c-3.7-1.5-7.3-3.1-11-4.6c-1,4.9-1.5,9.7-1.4,14.7c0.2,5.9,8,8.2,11.2,3c1.4-2.4,2.8-4.8,4-7.3
				c0.5-1.1,1-2.1,1.5-3.2c0.3-0.6,1.9-3.1,0.3-2.1c-2,0-4,0-6.1,0c0.2,0.1,0.4,0.2,0.5,0.3c-0.9-1.2-1.8-2.4-2.8-3.6
				c0,0.2,0.1,0.4,0.1,0.6c0.9-2.3,1.8-4.5,2.8-6.8c-0.1,0.1-0.3,0.2-0.4,0.3c2.9,2.3,5.9,4.5,8.8,6.8c1.9-5.7,3.8-11.4,5.6-17
				c-3.9-0.5-7.9-1.1-11.8-1.6c0.3,3.8,0.5,7.6,0.8,11.3c0.4,5.5,8.3,8.7,11.2,3c2.4-4.7,3.8-9.4,4.4-14.7c-4,0-8,0-12,0
				c0.2,7.2-1.5,13.7-5.1,20c3.7,1.5,7.3,3.1,11,4.6c4.4-12.1,0.6-26.4-9.3-34.6c-2.7-2.3-7.6-2.6-9.4,1.2
				c-2.9,6.1-3.7,12.2-1.9,18.7c1.5,5.4,8,5.4,11,1.4c6.6-8.9,3.4-21.2-5.3-27.3c-3.1-2.1-8.1,0-8.8,3.6c-1.8,8.8-2.6,17.7-2.3,26.8
				c0.2,6.7,10,8.3,11.8,1.6C92.9,72,94,57.6,92.2,43.2c-3.4,1.4-6.8,2.8-10.2,4.2c3.9,4.9,8.5,8.9,13.7,12.4
				c4.9,3.3,11.6-3.3,8.2-8.2c-1.8-2.6-3.6-5.2-5.4-7.7c-4.1-5.8-11.9-2.1-11,4.6c1.3,9.3,4.1,18.1,8,26.6c2.4,5.2,11.9,2.8,11.2-3
				c-1.3-11-4.7-21.2-10.7-30.5c-4.2-6.5-14.4-0.6-10.4,6.1c4.1,6.7,8.3,13.5,12.4,20.2c4.1,6.6,13.8,0.8,10.4-6.1
				C102.5,49.8,96,38,89,26.6c-2.7,2.7-5.5,5.5-8.2,8.2c5.2,2.9,9.6,6.6,13,11.5c2.7-2.7,5.5-5.5,8.2-8.2
				c-6.9-3.6-13.8-7.4-20.8-10.8c-5.7-2.7-11.7-1.2-13.3,5.5c-2.7,11.8,2.7,25,11.2,33.1c4.3,4.2,11.5,0,10-5.8
				c-2.2-8.7-7.4-16.2-14.7-21.4C67.8,34,57.3,30,53.5,40c-3,7.7-1.6,20.6,9.2,20.7c8.7,0.1,13.7-9.9,12-17.5
				c-4.2-18.8-33.3-12.5-29.3,6.4c1.8,8.4,11.2,15,19.1,9.6c6.9-4.8,11.1-16,11.8-24c0.3-4.3-0.8-9-4.5-11.5
				c-4.1-2.8-9.6-1.4-12.4,2.5c-6.9,9.4,4.8,19.5,13.3,21.3c2.9,0.6,6.8-0.8,7.4-4.2c1.3-7.6-2.7-15.1-10.6-17
				c-7.6-1.8-15,4-16.7,11.3c-1.7,7.1,2.9,14.2,9.5,16.8c7.2,2.8,16.4-0.4,14.8-9.4c-1.1-6.6-7-15.7-14-16.9
				c-9-1.6-12.5,9.1-15.6,15.5c-4.2,8.8-7.8,17.9-10.6,27.2c-2.7,8.7-5.6,17.9-3.3,27c1.4,5.5,10.3,5.9,11.6,0
				c2.7-12.7,4.5-25.2-1.1-37.3c-2.6-5.7-11.1-2.5-11.2,3c-0.3,17.2,7.2,34,20.4,45.1c3.5,2.9,10.9,1.4,10.2-4.2
				c-2.1-18.5-5.3-36.9-9.6-55c-1.4-5.9-9.9-5.5-11.6,0c-4.4,14.8,3.1,32,17.4,38.2c3.7,1.6,7.4,0.4,8.8-3.6
				c3-8.3,2.9-17.2-0.3-25.4c-1.6-4.2-8.6-6.6-11-1.4c-1.4,3.1-2.8,6.3-4.2,9.4c3.5,0,6.9,0,10.4,0c-3.1-5.8-5.2-11.7-6.8-18.1
				c-1-4.1-7.2-6.2-10-2.6c-2.1,2.6-4.2,5.2-6.3,7.8c3.3,0.9,6.7,1.8,10,2.6c-1.8-5.5-2.2-10.9-1.4-16.6c0.8-6-8.5-8-11.2-3
				c-3.8,7-7.5,14-11.3,21c3.7,1,7.5,2,11.2,3c-0.7-5.8-0.7-11.4,0-17.2c0.8-6.7-10.3-8.1-11.8-1.6c-3.3,14-3.7,28.1-1.6,42.3
				c1,6.8,11.9,5,11.8-1.6c-0.1-6.9-1.2-13.7-3.6-20.2c-2.2-6.1-12-5.6-11.8,1.6c0.3,10.9,2.7,21.1,7,31.1c1.2-2.9,2.4-5.9,3.6-8.8
				c1.9-0.4,0.7,0.8,1.6-1.2c0.4-1,0.7-2.1,1-3.1c0.9-2.5,1.8-5,2.7-7.4c1.9-5.3,3.8-10.5,5.8-15.8c3.7-10.2,7.5-20.5,11.2-30.7
				c2.6-7.3-8.9-10.4-11.6-3.2C36.5,39.8,31,54.7,25.6,69.6C23.4,75.7,19.2,83.2,21,90c1.6,6.1,7.4,9.3,13.4,8
				c4.2-0.9,5-5.5,3.6-8.8c-3.4-7.9-5.2-16.4-5.4-25.1c-3.9,0.5-7.9,1.1-11.8,1.6c2,5.6,3.1,11.1,3.1,17c3.9-0.5,7.9-1.1,11.8-1.6
				c-1.8-12-1.1-24.1,1.6-35.9c-3.9-0.5-7.9-1.1-11.8-1.6c-0.7,5.8-0.7,11.4,0,17.2c0.6,5.4,8.1,8.8,11.2,3c3.8-7,7.5-14,11.3-21
				c-3.7-1-7.5-2-11.2-3c-0.9,6.7-0.2,13.3,1.8,19.8c1.2,3.9,7,6.4,10,2.6c2.1-2.6,4.2-5.2,6.3-7.8c-3.3-0.9-6.7-1.8-10-2.6
				c1.8,7.3,4.5,14.3,8,20.9c2,3.7,8.5,4.1,10.4,0c1.4-3.1,2.8-6.3,4.2-9.4c-3.7-0.5-7.3-1-11-1.4c2.5,6.4,2.6,12.5,0.3,19
				c2.9-1.2,5.9-2.4,8.8-3.6C56,73.2,50.7,62.8,53.7,52.7c-3.9,0-7.7,0-11.6,0c4.1,17.1,7.1,34.4,9.1,51.8c3.4-1.4,6.8-2.8,10.2-4.2
				C50.5,91.1,44.3,78,44.5,63.6c-3.7,1-7.5,2-11.2,3c4,8.8,1.8,19.1-0.1,28.1c3.9,0,7.7,0,11.6,0c-1.9-7.2,1.6-15.6,3.8-22.4
				c2.6-8,5.6-15.8,9.3-23.4c0.9-1.9,1.9-3.9,2.9-5.8c0.3-0.5,0.6-1.1,0.9-1.6c1.5-1.7,1.1-2.3-1.3-1.5c0.1-0.2,2.7,3.1,2.8,3.3
				c1.4,2.1,0.9,5.2,3,2.1c2.2-3.2,0-1-1.5-3.2c-0.5-0.7-0.7-1.4-0.4-2.3c0.7-2.1,4.3-2.2,3.9,0.3c2.5-1.4,4.9-2.8,7.4-4.2
				c-3.4-0.7-9.2-6.5-11.5-1.8c-0.8,1.7-0.8,4.3-1.4,6.1c-0.6,1.6-1.3,3.2-2.1,4.7c-1,1.9-3.3,6.5-3.7,1.9c-0.2-2.4,2.3-4.1,4.5-3
				c0.9,0.5,1.3,1.2,1.5,2.2c0.1,0.7,0,1.4-0.3,2c-0.6,0.5-0.4,0.8,0.5,0.9c1.3,1.8,0.7-4.7,1.4-4.3c-3,0.6-3.4,1.1-1.3,1.6
				c0.7,0.3,1.3,0.6,2,1c6.3,3.5,10.5,9.2,12.3,16.2c3.3-1.9,6.7-3.9,10-5.8c-5.3-5.1-8.4-11.8-8.2-19.3c0-0.8,0.1-1.5,0.1-2.3
				c-4.9,0.7-5.8,1.6-2.6,2.7c1.4,1.4,4.3,2.2,6.1,3.1c4.3,2.2,8.7,4.5,13,6.7c4.9,2.5,11.9-2.9,8.2-8.2
				c-4.6-6.6-10.3-11.9-17.3-15.8c-5.1-2.8-11.4,3-8.2,8.2C85.6,44.2,92.1,56,98,68c3.5-2,6.9-4,10.4-6.1
				c-4.1-6.7-8.3-13.5-12.4-20.2c-3.5,2-6.9,4-10.4,6.1c4.8,7.4,8,15.6,9.1,24.4c3.7-1,7.5-2,11.2-3c-3.5-7.5-5.7-15.5-6.8-23.8
				c-3.7,1.5-7.3,3.1-11,4.6c1.8,2.6,3.6,5.2,5.4,7.7c2.7-2.7,5.5-5.5,8.2-8.2c-4.3-3-8-6.5-11.3-10.6c-3.1-3.8-10.9-0.8-10.2,4.2
				c1.7,13.3,0.9,26.5-2.7,39.5c3.9,0.5,7.9,1.1,11.8,1.6c-0.2-8,0.3-15.8,1.9-23.6c-2.9,1.2-5.9,2.4-8.8,3.6
				c3.7,2.6,3.4,7.6,1,10.8c3.7,0.5,7.3,1,11,1.4c-0.9-3.3-0.9-6.3,0.6-9.5c-3.1,0.4-6.3,0.8-9.4,1.2c6.9,5.8,9.3,14.5,6.2,23
				c-2.3,6.5,7.6,10.4,11,4.6c4.6-8,6.9-16.8,6.7-26c-0.2-7.9-11.1-7.5-12,0c-0.4,3.1-1.4,5.9-2.8,8.6c3.7,1,7.5,2,11.2,3
				c-0.3-3.8-0.5-7.6-0.8-11.3c-0.5-6.7-9.6-8.2-11.8-1.6c-1.9,5.7-3.8,11.4-5.6,17c-1.6,4.9,4.5,9.6,8.8,6.8
				c0.1-0.1,0.3-0.2,0.4-0.3c2.4-1.6,3.2-4,2.8-6.8c-0.4-2.1-1.6-3.5-3.4-4.5c-1.8-1.1-4.3-1.1-6.1,0c-2.7,1.7-3.6,3.9-4.8,6.8
				c-1.5,3.5-3.3,6.8-5.2,10.1c3.7,1,7.5,2,11.2,3c-0.1-3.9,0.1-7.7,0.9-11.5c1.3-6.2-8-11.1-11-4.6c-7,15.2-11.2,31.1-12.4,47.8
				c-0.3,3.7,4.1,7,7.6,5.8c10.5-3.7,12.7-17.3,2.5-23c-3-1.7-6.4-0.6-8.2,2.2c-4.4,6.5-10.1,11.5-16.9,15.4
				c2.9,1.2,5.9,2.4,8.8,3.6c-4.5-17.4-13.2-35.6-30.4-43.5c-4-1.8-6.3-3.1-7.1-7.7c-0.8-4.4-0.2-9.2,0.2-13.6
				c0.8-8.7,2.3-18.5,9.4-24.4c3.9-3.3,8.3-5.9,12.1-9.3c3.6-3.2,7.1-6.1,11.5-8c7.8-3.5,17.2-4.4,25.4-1.5
				c18.3,6.5,20.3,28.7,20.5,45.2c0.1,6.4-0.3,10.7-4.5,15.7c-4.2,5.2-8.6,10.2-12.6,15.5c-3.4,4.4-6.9,9.1-8.2,14.6
				c-1.5,6.4,0.9,12.6,0.3,19c2-2,4-4,6-6c-9.6,0.8-19.2,0.5-28.7-1.3c1.5,1.9,2.9,3.9,4.4,5.8c-0.2-3.5,0.8-6,2.9-8.9
				c-2.7,0.7-5.5,1.4-8.2,2.2c4,2.3,7.4,5.1,10.5,8.5c4.6,5,13.1-1.5,9.4-7.3c-7.6-12.1-10.6-25.9-9-40.1c-3.9,0.5-7.9,1.1-11.8,1.6
				c2.2,9.4,1.5,19.3-2.3,28.2c3.7,1,7.5,2,11.2,3c-1-11.1-0.7-22.3,1.4-33.2c1.7-9.1,3.7-20.8,11.2-27.1c-2.8,0-5.7,0-8.5,0
				c5.9,4.8,4.4,16.2,4.4,23c0,9.9-0.8,19.8-2.4,29.6c2.9-1.2,5.9-2.4,8.8-3.6c-3.3-1.9-3.5-6.5-3.6-10c-0.3-5.7-0.2-11.5,0.4-17.2
				c1.1-11.6,4.1-23.1,8.6-33.8c-3.7-1-7.5-2-11.2-3c-1.4,12.1-3,25.6-10.8,35.5c3.4,1.4,6.8,2.8,10.2,4.2
				c-0.8-10.4-1.1-20.9-0.6-31.3C72,49.6,60,49.6,59.7,57.3L59.7,57.3z"/>
		</g>
	</g>
	<g>
		<g>
			<path class="st0" d="M100.9,102.8c3.5-0.5,6.8-1.8,9.9-3.6c-2.4-3.1-4.8-6.3-7.3-9.4c-2.2,2.3-4,4.9-5.3,7.7
				c-1.3,2.9-0.9,6.6,2.2,8.2c2.6,1.4,6.9,0.9,8.2-2.2c0.5-1.1,1.1-2.2,1.7-3.2c0.1-0.2,1-1.4,0.7-1c-0.2,0.3-0.2,0.2,0.2-0.3
				c0.2-0.3,0.5-0.6,0.8-0.8c2.1-2.2,2.3-5.5,0.5-7.9c-1.8-2.3-5.1-3.1-7.7-1.5c-2.2,1.3-3.9,1.9-7,2.4s-5.1,4.6-4.2,7.4
				C94.6,102,97.6,103.3,100.9,102.8L100.9,102.8z"/>
		</g>
	</g>
</g>
<g id="Calque_1_1_">
	<path d="M52.2,22.4c-0.6,0-1.2,0.1-1.7,0.2c-0.9,0.1-1.8,0.2-2.7,0.3c-2.5,0.5-4.9,1-7.3,1.8c-2,0.7-3.9,1.6-5.8,2.5
		c-0.8,0.4-1.6,0.9-2.5,1.4c-3,1.7-5.7,3.8-8.1,6.3c-2.3,2.4-4.2,5.2-6,8c-0.5,0.9-1.1,1.8-1.6,2.7c-1.1,2-2,4.1-2.7,6.3
		c-0.8,2.4-1.2,4.9-1.6,7.4c-0.2,1.6-0.4,3.1-0.5,4.7c-0.1,1.4-0.2,2.8-0.2,4.3c-0.1,3-0.1,6-0.1,9c0,2.7,0.2,5.4,0.6,8.1
		c0.1,0.7,0.2,1.4,0.3,2.1c0.2,0.8,0.3,1.6,0.5,2.4c0.7,3.4,2.1,6.7,4.1,9.5c1.9,2.5,4.2,4.8,6.8,6.5c1.2,0.8,2.4,1.6,3.6,2.3
		c2,1.3,3.9,2.6,5.8,4.1c0.7,0.6,1.5,1.3,2.2,1.9c0.7,0.7,1.4,1.5,2.1,2.3c0.5,0.7,1,1.3,1.5,2c1,1.4,1.8,2.9,2.5,4.4
		c0.8,1.5,1.5,3.1,2.2,4.6c0.2,0.5,0.4,1,0.6,1.4c0.8,2.3,1.6,4.6,2.2,7c0.3,1.3,0.6,2.6,0.8,3.9c0.2,1.3,0.4,2.5,0.6,3.8
		c0.4,3.3,0.8,6.7,1.3,10l0,0c0.3-3.1,0.6-6.1,0.8-9.2c0.2-2.9,0.2-5.8,0-8.7c-0.1-1.4-0.3-2.9-0.6-4.3c-0.2-1.4-0.5-2.8-0.9-4.2
		s-0.9-2.8-1.4-4.1c-0.8-1.9-1.5-3.8-2.5-5.7c-1.2-2.3-2.9-4.3-4.7-6.3c-0.6-0.6-1.2-1.2-1.9-1.8c-0.9-0.8-1.8-1.5-2.7-2.2
		c-1.4-1.1-2.9-2.1-4.4-3.1c-1.7-1.1-3.5-2.2-5.1-3.4c-1.6-1.3-3-2.7-4.3-4.2c-0.9-1.2-1.6-2.4-2.2-3.7c-0.9-2.2-1.4-4.6-1.8-6.9
		c-0.2-1.8-0.5-3.7-0.5-5.5c-0.1-2.2-0.1-4.5-0.1-6.7c0-2.3,0.1-4.6,0.2-6.9c0.1-2.1,0.3-4.3,0.5-6.4c0.1-0.8,0.3-1.7,0.4-2.5
		c0.4-2.4,1.2-4.8,2.1-7.1c0.8-1.7,1.7-3.4,2.7-5c0.9-1.6,1.9-3.1,3-4.5c1.7-2.2,3.6-4.1,5.8-5.8c2.7-2,5.6-3.6,8.6-4.9
		c1.7-0.7,3.5-1.3,5.3-1.8c0.9-0.3,1.8-0.5,2.8-0.7c1.4-0.3,2.8-0.6,4.2-0.9c2.8-0.3,5.6-0.6,8.4-0.7c3.6-0.1,7.2-0.3,10.7,0.1
		c0.9,0.1,1.8,0.3,2.7,0.7c0.6,0.3,1.2,0.6,1.7,1c1,0.8,1.8,1.7,2.7,2.6l0,0c-0.8-1.4-1.5-2.7-2.6-3.9c-1.2-1.3-2.9-1.9-4.6-2.5
		c-1.8-0.6-3.6-0.9-5.4-1.2c-1.5-0.2-3.1-0.4-4.6-0.6c-1.3-0.1-2.6-0.2-3.9-0.3c-0.9,0-1.7,0-2.6-0.1c-0.1,0-0.1,0-0.2,0
		C53.6,22.3,52.9,22.4,52.2,22.4L52.2,22.4L52.2,22.4z M43.3,127.1c0.1,0.2,0.1,0.3,0.2,0.5C43.4,127.4,43.4,127.2,43.3,127.1
		L43.3,127.1L43.3,127.1z M44.3,129.4c0,0,0,0.1,0.1,0.1C44.3,129.5,44.3,129.4,44.3,129.4L44.3,129.4L44.3,129.4z"/>
	<path d="M73.2,10.5c-1.7,0.1-3.3,0.2-5,0.5c-0.7,0.1-1.4,0.2-2.2,0.4c-0.7,0.1-1.3,0.2-2,0.3c-1.8,0.4-3.6,0.9-5.3,1.4
		c-1,0.3-2.1,0.7-3.1,1s-1.9,0.7-2.9,1.1c-1.4,0.6-2.8,1.2-4.1,1.8c-2.4,1.2-4.6,2.6-6.8,4.3c-2.2,1.7-4.2,3.7-6.2,5.6l0,0
		c1.3-0.8,2.7-1.5,4-2.3c2-1.2,4.2-2.2,6.3-3.1c2.4-1,4.9-1.8,7.4-2.4c1.3-0.3,2.5-0.7,3.8-1c0.9-0.2,1.7-0.4,2.6-0.6
		c0.5-0.1,1-0.3,1.5-0.4c1.4-0.2,2.7-0.5,4.1-0.8c1.2-0.1,2.4-0.3,3.5-0.5c1.3-0.1,2.7-0.2,4-0.3c2.8-0.2,5.5-0.2,8.3,0.1
		c3.2,0.5,6.4,1.3,9.4,2.5c2.1,0.9,4,2.1,5.9,3.4c2.2,1.8,4.1,3.8,5.8,6c1.3,1.8,2.5,3.6,3.7,5.5c0.9,1.3,1.6,2.7,2.4,4.1
		c0.7,1.3,1.4,2.6,2.1,4c0.3,0.5,0.5,1.1,0.7,1.6c0.3,0.6,0.5,1.3,0.8,1.9c0.7,1.9,1.4,3.8,1.9,5.8c0.5,1.9,0.9,3.9,1.2,5.9
		c0.2,1.5,0.3,3.1,0.4,4.6c0.1,1.9,0.2,3.9,0.3,5.8c0.1,1.6,0.1,3.3,0.1,4.9c0,2.8,0.1,5.6-0.2,8.4c-0.2,1.6-0.5,3.2-1,4.8
		c-0.2,0.9-0.4,1.8-0.7,2.7s-0.6,1.9-0.9,2.8c-0.2,0.7-0.5,1.4-0.8,2.1c-0.3,0.6-0.6,1.3-0.9,1.9c-0.3,0.7-0.7,1.3-1,1.9
		c-0.6,1.1-1.3,2.1-2,3.2c-0.8,1-1.6,2-2.6,2.8c-1.1,1-2.2,2-3.3,2.9c-2.2,1.9-4.3,3.9-6.3,6.1c-1.3,1.4-2.4,2.8-3.3,4.5
		c-0.7,1.4-1.3,2.9-1.8,4.4c-0.4,1.4-0.8,2.8-1.1,4.2c-0.2,1.6-0.5,3.2-0.6,4.8c-0.1,1.5-0.2,3.1-0.3,4.6
		c-0.2,5.6,0.2,11.3,0.7,16.9l0,0c0.4-2.7,0.7-5.3,1.1-8c0.3-2.4,0.8-4.8,1.2-7.1c0.4-2.4,1-4.9,1.5-7.3c0.1-0.7,0.4-1.3,0.5-2
		c0.1-0.5,0.3-1,0.4-1.5c0.2-0.6,0.4-1.2,0.6-1.8c0.2-0.5,0.4-1.1,0.7-1.6c0.7-1.6,1.6-3.1,2.6-4.6c1.2-1.5,2.6-2.9,4-4.2
		c1-1,2.1-2,3.2-3c2.2-2,4.5-3.9,6.3-6.2c0.9-1.2,1.7-2.4,2.5-3.7c0.7-1.2,1.3-2.4,1.9-3.7c1.3-2.8,2.3-5.6,3.1-8.5
		c0.2-0.8,0.4-1.6,0.6-2.5c0.5-2.1,0.8-4.2,1-6.3c0.2-2.3,0.1-4.6,0-6.9c0-2.8-0.1-5.6-0.3-8.4c-0.3-4.3-0.6-8.6-1.6-12.8
		c-0.7-3-1.7-6-3-8.8c-0.6-1.4-1.2-2.7-1.8-4.1c-1.3-2.6-2.7-5.2-4.3-7.6c-0.5-0.8-1-1.6-1.5-2.4c-0.8-1.3-1.8-2.5-2.8-3.8
		c-1.2-1.6-2.6-3.1-4.1-4.5c-1.6-1.5-3.4-2.8-5.3-3.9c-3.5-2.1-7.5-3.4-11.4-4.2c-2.8-0.6-5.7-0.9-8.6-0.9
		C75.3,10.4,74.3,10.5,73.2,10.5L73.2,10.5L73.2,10.5z M69.6,15.9c-0.1,0-0.1,0-0.2,0C69.5,15.9,69.5,15.9,69.6,15.9L69.6,15.9
		L69.6,15.9z M115.8,80.4c0,0.1,0,0.2,0,0.3C115.8,80.6,115.8,80.5,115.8,80.4L115.8,80.4L115.8,80.4z"/>
	<path d="M93.7,141.6c-2.4,0.7-4.9,1.3-7.4,1.6c-2.7,0.3-5.5,0.3-8.3,0.3c-0.6,0-1.2,0-1.7,0c-1.7,0-3.3,0.1-5,0.2
		c-1.8,0.1-3.6,0.3-5.4,0.5c-2.2,0.2-4.4,0.4-6.6,0.5c-2.2,0-4.5-0.1-6.8-0.4c0,0,0,0,0.1,0c-0.5-0.1-1-0.2-1.5-0.2l0,0
		c2.5,1.3,5.1,2.4,7.9,3c1.4,0.3,2.9,0.5,4.4,0.6c1,0.1,1.9,0.2,2.9,0.2c2.2,0,4.4,0,6.5-0.1c3.9-0.3,7.8-0.7,11.6-1.7
		C87.8,145.1,90.9,143.5,93.7,141.6C93.8,141.6,93.8,141.6,93.7,141.6L93.7,141.6L93.7,141.6L93.7,141.6z"/>
	<path d="M50.6,149.7c-0.2,0.9-0.3,1.6-0.2,2.5c0.1,0.9,1,1.5,1.8,1.8s1.7,0.5,2.6,0.6c0.6,0.1,1.3,0.1,1.9,0.1l0,0
		c-0.3-0.1-0.5-0.2-0.8-0.3l0,0c-1.1-0.5-2.2-0.9-3.3-1.3c-0.3-0.1-0.6-0.3-0.9-0.5c-0.1-0.1-0.3-0.2-0.4-0.4c0-0.1-0.1-0.2-0.1-0.3
		C50.9,151.2,50.8,150.5,50.6,149.7L50.6,149.7L50.6,149.7L50.6,149.7L50.6,149.7z M51.7,152.6C51.7,152.6,51.8,152.7,51.7,152.6
		C51.8,152.7,51.7,152.6,51.7,152.6L51.7,152.6L51.7,152.6z"/>
	<path d="M52.3,151.5c1.1,0.7,2.3,1.3,3.6,1.6c1.3,0.3,2.6,0.4,3.9,0.4l0,0c-1.2-0.5-2.4-0.9-3.6-1.2
		C54.9,151.8,53.6,151.6,52.3,151.5C52.3,151.4,52.3,151.4,52.3,151.5L52.3,151.5L52.3,151.5z"/>
	<path d="M92.2,142c-0.4,1.2-0.7,2.4-1,3.7c-0.3,1.2-0.4,2.4-0.6,3.6c-0.4,2.9-0.3,5.9-0.6,8.8c-0.1,0.8-0.3,1.5-0.6,2.2
		c-0.1,0.3-0.3,0.5-0.5,0.8c-0.3,0.4-0.6,0.7-1,1c-0.5,0.4-1.1,0.7-1.7,1c-1,0.4-2.1,0.7-3.2,0.9c-0.7,0.2-1.5,0.3-2.2,0.5
		c-0.4,0-0.8,0-1.2,0c-0.6-0.1-1.1-0.3-1.6-0.5c0,0,0,0,0.1,0c-0.4-0.2-0.8-0.4-1.1-0.6l0,0c0.7,0.8,1.5,1.5,2.4,2
		c0.8,0.4,1.9,0.5,2.9,0.5c1.8,0.1,3.6,0,5.4-0.4c2.3-0.6,4.2-2.2,5.1-4.4c0.8-2,0.8-4.3,0.6-6.5c-0.1-2-0.4-3.9-0.6-5.9
		C92.5,146.4,92.4,144.2,92.2,142L92.2,142L92.2,142L92.2,142L92.2,142z"/>
	<path d="M52.6,145.7c-0.5,1.4-1.1,2.8-1.1,4.3c0,1.2,0.6,2.3,1.6,3c2,1.5,4.6,1.6,7,1.6c2.7,0,5.4-0.3,8.1-0.6l0,0
		c-2.5-0.6-5.1-1.1-7.7-1.4c-0.8-0.1-1.6-0.2-2.4-0.3c-1.2-0.2-2.3-0.3-3.5-0.7c-0.3-0.1-0.6-0.3-0.8-0.4c-0.2-0.2-0.4-0.3-0.5-0.5
		c-0.1-0.1-0.2-0.3-0.2-0.4c-0.1-0.4-0.2-0.7-0.3-1.1C52.7,147.9,52.7,146.8,52.6,145.7L52.6,145.7L52.6,145.7L52.6,145.7
		L52.6,145.7z M53,150L53,150L53,150L53,150L53,150z"/>
	<path d="M55.3,140.9c-1.3,0.9-2.6,1.8-3.8,2.9c-1.2,1.1-2.1,2.6-2.6,4.1c-0.3,0.9-0.5,1.8-0.6,2.7s0.2,1.7,0.5,2.5
		c0.3,0.7,1,1.4,1.6,1.8c0.8,0.6,1.7,1,2.7,1.2c1.6,0.4,3.4,0.5,5.1,0.5c0.9,0,1.8,0,2.7-0.1c1.5-0.1,3.1-0.2,4.6-0.3l0,0
		c-1.5-0.3-2.9-0.7-4.4-1c-2.5-0.6-5.1-1-7.6-1.9c-0.5-0.2-1-0.5-1.5-0.8c-0.2-0.2-0.4-0.4-0.6-0.6c-0.1-0.2-0.2-0.3-0.3-0.5
		c0-0.1-0.1-0.2-0.1-0.4c0-0.7,0-1.3,0.1-2c0.2-1,0.4-1.9,0.8-2.9C52.9,144.3,54.2,142.7,55.3,140.9C55.4,141,55.4,140.9,55.3,140.9
		L55.3,140.9L55.3,140.9L55.3,140.9z M51.3,151.5c0,0.1,0.1,0.1,0.1,0.2C51.4,151.6,51.3,151.6,51.3,151.5L51.3,151.5L51.3,151.5z"
		/>
	<path d="M56.7,173.1L56.7,173.1c1.9,0.5,3.8,0.9,5.7,0.9c1.7,0,3.4-0.2,5-0.5l0,0c-1.6-0.4-3.3-0.6-5-0.7c-0.4,0-0.7,0-1.1,0
		C59.8,172.7,58.2,172.8,56.7,173.1L56.7,173.1L56.7,173.1z"/>
	<path d="M51.1,150.8c0,0.8,0.7,1.5,1.5,1.5s1.5-0.7,1.5-1.5s-0.7-1.5-1.5-1.5S51.1,149.9,51.1,150.8L51.1,150.8L51.1,150.8z"/>
	<path d="M49.2,147.4c-0.8,2.7-1.4,5.4-1.8,8.2c-0.3,2.6-0.6,5.2-0.7,7.8c-0.1,1.5-0.2,3.1-0.1,4.6c0.1,1.7,0.9,3.2,2.1,4.4
		c0.6,0.6,1.4,1.1,2.2,1.6c0.8,0.4,1.7,0.7,2.5,1c4.5,1.4,9.2,0.3,13.7-0.9l0,0c-2.2-0.2-4.5-0.2-6.7-0.5c-1.7-0.3-3.5-0.6-5.1-1.3
		c-1.1-0.5-2.1-1-3-1.7c-0.3-0.3-0.6-0.6-0.9-0.9c-0.2-0.3-0.3-0.5-0.5-0.8c-0.1-0.3-0.2-0.6-0.2-0.9c-0.1-1.8-0.1-3.6-0.2-5.4
		c-0.1-1.6-0.2-3.2-0.3-4.9C49.8,154.2,49.5,150.8,49.2,147.4C49.3,147.4,49.3,147.4,49.2,147.4L49.2,147.4L49.2,147.4L49.2,147.4z"
		/>
	<path d="M93.5,154.5c-0.8,4.4-1.3,8.8-1.7,13.3c-0.2,2.1-0.3,4.3-0.5,6.4c-0.1,2.1-0.2,4.2-0.4,6.3c-0.1,0.3-0.1,0.6-0.2,0.9
		c-0.1,0.1-0.1,0.2-0.2,0.3c-0.1,0.2-0.3,0.3-0.5,0.4c-0.3,0.2-0.7,0.4-1,0.6c-1,0.4-2,0.6-3,0.7c-2.1,0.2-4.3,0.5-6.4,0.8
		c-2,0.3-4,0.7-6.1,1c-0.1,0-0.3,0-0.4,0.1l0,0H73h0.1c-0.3,0-0.7,0.1-1,0.1c-0.1,0-0.2,0-0.3,0c-2.8,0.4-5.7,0.6-8.5,0.8
		c-1.4,0.1-2.7,0.1-4.1,0.2c-0.7,0-1.5,0-2.2,0.1c-0.7,0-1.4,0.1-2.2,0c-0.2,0-0.3-0.1-0.5-0.1c-0.1-0.1-0.3-0.2-0.4-0.2
		c-0.3-0.2-0.5-0.5-0.7-0.7c-0.4-0.5-0.7-1.1-0.9-1.7c-1.3-3.3-1.6-6.9-2.1-10.4v0.1c-0.4-2.9-0.7-5.9-1-8.8l0,0
		c-0.3,2.9-0.6,5.9-0.8,8.8c-0.1,1.5-0.2,3-0.2,4.6c0,1.1,0,2.3,0.1,3.4c0.1,1,0.2,2,0.4,2.9c0.2,1.1,0.6,2.2,1.1,3.2
		c0.8,1.6,2.4,2.9,4.1,3.4c0.6,0.2,1.3,0.2,1.9,0.2c0.4,0,0.8,0,1.1,0c1.4,0,2.7,0.1,4.1,0.1c2.8,0,5.7-0.1,8.5-0.4
		c2.1-0.2,4.1-0.5,6.2-0.8s4.2-0.7,6.3-1c0.5-0.1,1-0.1,1.6-0.2c-0.2,0-0.5,0.1-0.7,0.1c1.8-0.2,3.5-0.4,5.2-0.8
		c1-0.2,1.9-0.6,2.8-1c0.9-0.4,1.6-1,2.4-1.6c0.7-0.6,1.2-1.5,1.6-2.4c0.4-1,0.5-1.9,0.5-3c0-1.4-0.1-2.8-0.2-4.2
		c-0.1-1.4-0.2-2.8-0.3-4.2C94.5,166.2,94,160.3,93.5,154.5C93.6,154.5,93.6,154.5,93.5,154.5C93.6,154.5,93.5,154.5,93.5,154.5
		L93.5,154.5L93.5,154.5z M72,185.5c0.1,0,0.2,0,0.3,0c0.1,0,0.3,0,0.4-0.1C72.4,185.4,72.2,185.5,72,185.5L72,185.5L72,185.5z
		 M73.2,185.3c0.1,0,0.1,0,0.2,0C73.4,185.3,73.3,185.3,73.2,185.3L73.2,185.3L73.2,185.3z"/>
	<path d="M80.7,220c-2.7,0.1-5.5,0.3-8.2,0.4c-5.8,0.4-11.6,0.9-17.4,1.6c-3.3,0.4-6.7,0.8-10,1.2l0,0c11.6,1.5,23.4,2.1,35.1,1.7
		c5.1-0.2,10.2-0.6,15.3-0.9c5.5-0.4,11-0.9,16.5-1.4c3-0.3,6.1-0.6,9.1-0.9l0,0c-5.4-0.5-10.8-0.9-16.2-1.1c-3-0.1-6.1-0.3-9.1-0.4
		c-2.4-0.1-4.8-0.2-7.2-0.2c-0.9,0-1.8,0-2.6,0C84.2,219.9,82.4,219.9,80.7,220L80.7,220L80.7,220z"/>
	<path d="M57.5,84.6c-0.2,2.4-0.5,4.8-0.6,7.2c-0.1,1.2-0.2,2.5-0.2,3.7c0,1.4,0,2.8,0.1,4.2c0,0.4,0.1,0.9,0.1,1.3
		c0.1,0.9,0.2,1.8,0.3,2.7c0.1,1.1,0.2,2.3,0.4,3.4c0.3,2.4,0.6,4.9,0.9,7.3c0.2,1.3,0.3,2.6,0.4,3.8c0.1,1.3,0.2,2.6,0.2,3.9
		c0.1,1.2,0.1,2.3,0.2,3.5c0.1,1.9,0.2,3.8,0.4,5.8c0.3,4,0.8,7.9,1.3,11.9l0,0c1.1-5.5,1.7-11,2-16.5c0.1-1.3,0.1-2.7,0.2-4
		c0.1-3.1,0-6.2-0.5-9.2c-0.5-2.8-1-5.5-1.7-8.3c-0.4-1.8-0.8-3.6-1.3-5.4c-0.4-1.5-0.6-3.1-0.9-4.7c-0.2-1.4-0.4-2.8-0.6-4.2
		C58,88.8,57.8,86.7,57.5,84.6L57.5,84.6L57.5,84.6L57.5,84.6L57.5,84.6z"/>
	<path d="M81.4,71.3C80.1,76.4,79,81.5,78,86.6c-0.2,1-0.3,2-0.4,3c-0.2,1.5-0.3,2.9-0.5,4.4c-0.1,1.4-0.2,2.7-0.2,4.1
		c-0.1,1.1-0.1,2.1-0.1,3.2c-0.2,5.3-0.2,10.6,0,15.9c0.2,4.8,0.5,9.6,1,14.5c0.3,3.6,0.7,7.3,1.1,10.9l0,0
		c0.9-5.2,1.5-10.4,1.8-15.6c0.3-5.1,0.4-10.3,0.4-15.4c0-5.3-0.2-10.6-0.4-15.9c-0.1-2.6-0.1-5.1-0.1-7.7c0-0.3,0-0.6,0-0.9
		c0-0.9,0.1-1.8,0.1-2.7c0.1-1.1,0.1-2.1,0.2-3.2C81,77.9,81.2,74.6,81.4,71.3L81.4,71.3L81.4,71.3L81.4,71.3L81.4,71.3z"/>
	<path d="M84.2,45.3c-0.4,0.2-0.9,0.4-1.3,0.6c-0.5,0.3-0.9,0.6-1.3,0.9c-0.8,0.7-1.4,1.6-2,2.5c-1,1.6-1.5,3.5-1.9,5.2
		c-0.4,2-0.6,4.1-0.7,6.2c0,1.1,0,2.2,0,3.3c-0.4,0.2-0.8,0.5-1.3,0.7c-0.7,0.3-1.4,0.5-2.1,0.6c-0.9,0.1-1.8,0-2.8,0
		c-1.1-0.2-2.1-0.4-3.1-0.8c0-0.2,0.1-0.4,0.1-0.6c0.2-1.4,0.3-2.8,0.4-4.1c0-0.7,0.1-1.5,0.1-2.2c0.1-1.9-0.3-3.9-1.4-5.5
		c-1-1.4-2.3-2.3-3.9-2.8c-1.1-0.3-2.2-0.1-3.2,0.4c-0.4,0.2-0.7,0.4-1.1,0.7c-0.4,0.4-0.8,0.8-1.1,1.3c-0.3,0.4-0.5,0.9-0.6,1.3
		c-0.2,0.4-0.3,0.8-0.4,1.2c-0.2,0.9-0.3,1.8-0.3,2.7c0,2.1,0.9,4,1.9,5.8c1.1,1.9,2.6,3.5,4.4,4.7c-0.1,0.3-0.1,0.7-0.2,1
		c-0.2,1.2-0.6,2.3-0.9,3.5c-0.6,2.3-1.5,4.5-2.3,6.6c-0.3,0.8-0.7,1.5-1,2.3c-0.1-0.4-0.2-0.9-0.4-1.3c-0.8-2.4-1.5-4.8-2.9-7
		c-1-1.6-2.3-2.9-4-3.7c-0.8-0.4-1.7-0.8-2.7-1c-1.1-0.3-2.1-0.4-3.2-0.2c-1.8,0.3-3.2,1.7-4.1,3.2c-0.5,0.8-0.8,1.8-1,2.7
		c-0.3,1.1-0.4,2.2-0.4,3.3c-0.1,1.9,0.2,3.8,0.6,5.6c0.5,1.9,1.3,3.8,2.4,5.5c0.9,1.5,2,2.9,3.4,3.9c0.7,0.6,1.4,1,2.3,1.4
		c1.1,0.5,2.1,0.7,3.3,0.7c0.5,0,1-0.1,1.5-0.2c0.5-0.1,1-0.3,1.4-0.5c0.9-0.4,1.6-1,2.4-1.6c0.5-0.4,1-1,1.4-1.5
		c0.3,1,0.6,1.9,0.8,2.9l0,0c-0.1-1.3-0.1-2.6-0.1-3.9c0.5-0.7,1-1.5,1.5-2.2c1.3-2.1,2.2-4.4,3.2-6.7c0.5-1.1,0.9-2.3,1.3-3.5
		c0.4-1.3,0.9-2.6,1.2-3.9c0.3-1.1,0.6-2.2,0.8-3.4c1.7,0.6,3.5,0.8,5.3,0.8c1.8,0.1,3.5-0.4,5.1-1c0,0.6,0.1,1.2,0.1,1.8
		c0.2,2.3,0.3,4.6,0.9,6.8c0.4,1.2,0.9,2.3,1.3,3.5c0.3,0.8,0.7,1.6,1,2.3l0,0c-0.4-1.9-0.8-3.7-1.1-5.6c-0.1-1.2-0.2-2.4-0.1-3.6
		c0.1-0.7,0.1-1.4,0.2-2.1c0.1-1.1,0.2-2.3,0.3-3.4c0-0.4,0.1-0.7,0.1-1.1c1-0.7,2-1.5,2.9-2.4c1.6-1.4,3-3,4.3-4.7
		c1.5-2,3-4.1,4-6.4c0.4-0.8,0.7-1.6,0.9-2.5c0.1-0.4,0.2-1,0.2-1.4c0-0.5,0-1-0.1-1.4c-0.2-0.8-0.6-1.7-1.2-2.3
		c-0.6-0.7-1.4-1.1-2.3-1.4c-0.8-0.3-1.6-0.4-2.4-0.4C85.7,44.9,84.9,45,84.2,45.3L84.2,45.3L84.2,45.3z M87.4,50L87.4,50
		C87.4,50.1,87.4,50.1,87.4,50L87.4,50L87.4,50z M86.9,50.3c0.2,0,0.5,0.1,0.7,0.2c0,0,0,0,0,0.1s0,0.3,0,0.4
		c-0.1,0.8-0.4,1.5-0.6,2.2c-0.7,1.6-1.7,3.1-2.8,4.5c-0.9,1.2-2,2.4-3.1,3.4c0.4-2.4,1-4.7,1.9-7c0.4-0.8,0.8-1.5,1.3-2.2
		c0.3-0.4,0.6-0.7,1-1c0.2-0.1,0.4-0.3,0.7-0.4c0.2-0.1,0.3-0.1,0.5-0.1C86.5,50.2,86.7,50.2,86.9,50.3L86.9,50.3L86.9,50.3z
		 M87.6,50.5L87.6,50.5C87.7,50.6,87.7,50.5,87.6,50.5L87.6,50.5L87.6,50.5z M62.6,54.3c-0.1,0-0.1,0.1-0.2,0.1
		C62.5,54.3,62.5,54.3,62.6,54.3L62.6,54.3L62.6,54.3z M61.8,54.5c-0.1,0-0.2,0-0.3,0C61.6,54.6,61.7,54.5,61.8,54.5L61.8,54.5
		L61.8,54.5z M62.1,54.6L62.1,54.6c0.1,0.1,0.3,0.1,0.4,0.2c0.1,0.1,0.3,0.3,0.4,0.4c0.1,0.2,0.2,0.4,0.3,0.5c0.1,0.3,0.2,0.7,0.2,1
		c0.1,1.5,0,3,0,4.5c-0.5-0.8-0.9-1.5-1.3-2.4c-0.2-0.5-0.3-1-0.5-1.5c0-0.4,0-0.8,0-1.2c0.1-0.5,0.2-0.9,0.4-1.4
		C62.1,54.7,62.1,54.6,62.1,54.6L62.1,54.6L62.1,54.6z M61.9,55L61.9,55C61.9,55,61.9,55,61.9,55L61.9,55L61.9,55z M46.6,71.8
		c-0.1,0-0.2,0.1-0.3,0.1C46.4,71.9,46.5,71.9,46.6,71.8L46.6,71.8L46.6,71.8z M47.5,72c0.7,0.1,1.4,0.3,2.1,0.6
		c0.4,0.2,0.8,0.5,1.2,0.7c0.5,0.4,0.9,0.8,1.3,1.3c0.9,1.3,1.7,2.7,2.3,4.1c0.5,1,1,2,1.4,3c0.3,0.7,0.6,1.5,0.8,2.3
		c-0.5,0.8-1,1.5-1.5,2.3c-0.7,0.8-1.4,1.6-2.2,2.3c-0.2,0.2-0.5,0.3-0.7,0.4c-0.2,0.1-0.4,0.1-0.5,0.1c-0.2,0-0.4,0-0.6,0
		c-0.3-0.1-0.7-0.2-1-0.3c-0.4-0.2-0.8-0.4-1.1-0.7c-0.5-0.4-0.9-0.9-1.4-1.4c-0.7-1-1.3-2.1-1.9-3.2c-0.5-1.3-0.8-2.6-1-3.9
		c-0.2-1.4-0.1-2.8,0-4.3c0.1-0.7,0.3-1.4,0.5-2.1c0.1-0.3,0.3-0.5,0.5-0.8c0.1-0.1,0.3-0.3,0.4-0.4c0,0,0,0,0.1,0s0.2-0.1,0.3-0.1
		C46.8,71.9,47.1,71.9,47.5,72L47.5,72L47.5,72z M79.8,78.1L79.8,78.1L79.8,78.1L79.8,78.1L79.8,78.1z"/>
</g>
</svg>
