<?xml version="1.0" encoding="utf-8"?>
<!-- Generator: Adobe Illustrator 21.1.0, SVG Export Plug-In . SVG Version: 6.00 Build 0)  -->
<svg version="1.1" id="Layer_1" xmlns="http://www.w3.org/2000/svg" xmlns:xlink="http://www.w3.org/1999/xlink" x="0px" y="0px"
	 viewBox="0 0 359.9 762.6" style="enable-background:new 0 0 359.9 762.6;" xml:space="preserve">
<style type="text/css">
	.st0{fill:none;stroke:#000000;stroke-width:6;stroke-miterlimit:10;}
	.st1{fill:none;stroke:#000000;stroke-width:2;stroke-miterlimit:10;}
	.st2{fill:none;stroke:#000000;stroke-width:3;stroke-miterlimit:10;}
	.st3{fill:none;stroke:#000000;stroke-miterlimit:10;}
	.st4{stroke:#000000;stroke-miterlimit:10;}
	.st5{fill:#FFFFFF;stroke:#000000;stroke-miterlimit:10;}
	.st6{fill:#2D2D2D;stroke:#000000;stroke-miterlimit:10;}
</style>
<path class="st0" d="M287,323.3l54.4-61.8V58C164.2-49,29.1,58,29.1,58v203.5l56.1,61.8"/>
<line class="st0" x1="85.2" y1="323.3" x2="287" y2="323.3"/>
<path class="st0" d="M87.2,103c0-17.5,30.7-31.7,68.6-31.7"/>
<path class="st0" d="M279.5,103c0-17.5-29.9-31.7-66.9-31.7"/>
<path class="st1" d="M112.3,211.5c0,0,71.1,136.9,133.8,0"/>
<path class="st2" d="M112.3,211.5c0,0,70.2,16.7,133.8,0"/>
<path class="st3" d="M128.1,169.3"/>
<path class="st3" d="M128.1,93.2"/>
<path class="st3" d="M133.8,177c0-7.9-28.6-15.9-46.6-14.3"/>
<path class="st1" d="M97.6,162.7c-29.5-34.7,16.2-75.5,30.5-69.5"/>
<path class="st1" d="M129.8,171.2c39.2-3.4,28.1-69.7-1.7-78"/>
<path class="st3" d="M233.3,177.9c0-7.9,20.8-14.3,46.6-14.3"/>
<path class="st1" d="M269.6,163.6c29.5-34.7-16.2-75.5-30.5-69.5"/>
<path class="st1" d="M237.3,172.1c-39.2-3.4-28.1-69.7,1.7-78"/>
<ellipse class="st3" cx="123.4" cy="136.8" rx="18.2" ry="20.8"/>
<ellipse class="st4" cx="124" cy="137.8" rx="11.2" ry="12.2"/>
<ellipse class="st3" cx="245.4" cy="136.8" rx="18.2" ry="20.8"/>
<ellipse class="st4" cx="246" cy="137.8" rx="11.2" ry="12.2"/>
<path class="st2" d="M175.4,192.2c-5.4-3,30.3,19.5,25.8-18.1"/>
<path class="st2" d="M108,216.9c0-4.2,6.1-7.6,13.5-7.6"/>
<path class="st2" d="M250.1,216.9c0-4.2-4.9-7.6-11-7.6"/>
<path class="st3" d="M112.3,211.5c0,0,70.2,50.1,133.8,0"/>
<path class="st3" d="M155.8,263c0,0,26.8-25.6,53.9,0"/>
<circle class="st5" cx="131" cy="129.4" r="7.5"/>
<circle class="st5" cx="253" cy="128.4" r="7.5"/>
<polyline class="st0" points="86.8,335.3 59.1,323.3 86.5,323.9 59.1,323.3 "/>
<line class="st0" x1="85.2" y1="337" x2="287" y2="337"/>
<polyline class="st0" points="286.1,335.3 313.8,323.3 286.3,323.9 313.8,323.3 "/>
<polyline class="st0" points="50.1,339.3 86.2,339.3 50.1,339.3 86.2,355 286.1,355 322.2,339.3 286.1,339.3 322.2,339.3 "/>
<line class="st0" x1="29.5" y1="526.1" x2="218.2" y2="494.8"/>
<line class="st0" x1="42.1" y1="496.3" x2="141.6" y2="487.6"/>
<path class="st0" d="M34,525.7c-10.9,4.6-21.9-3.4-26.1-13.2l-0.5-1c3.6-7.2,6.6-13.2,10.6-20.2c23-46,46-90,68.1-136.3"/>
<path class="st0" d="M33.6,506.5c0.7-7.5,6.7-13.1,13.3-12.5"/>
<path class="st0" d="M289.1,409.8c13.1-2.1,25.1,4.6,26.8,15"/>
<path class="st0" d="M174.9,328.8"/>
<path class="st0" d="M148.1,313.8"/>
<path class="st0" d="M317.6,477.1"/>
<path class="st0" d="M317.6,441.4l12.6,27.4c-0.9,6.6,1.6,12.3-10.5,10.7"/>
<line class="st0" x1="315.9" y1="424.8" x2="319.9" y2="446.4"/>
<path class="st0" d="M263.6,435.6l27.2-9.3c13.1-2.1,25.1,4.6,26.8,15"/>
<polyline class="st0" points="203.8,464.2 215.8,450.7 257.2,424.8 289.1,409.8 "/>
<path class="st0" d="M286.1,355c22,43.3,44,84.3,64,128.3c3,6,2,15-4.6,19.1l-9.2,2.5c-76.2-7.6-152.2-12.6-228.3-19.6"/>
<polyline class="st0" points="86.2,355 86.2,378.3 42.1,496.3 "/>
<path class="st0" d="M287,500.7l-0.9,16.2l13.9,8.2l-13.9,13.5l0.9,39.7c-83.1,135-199.8,0-199.8,0v-25.5l-14.3-9l14.3-10.5l-2-16.6
	"/>
<path class="st0" d="M52.4,468.3c10.5-25.4,45.7-14.8,65.9-11.9c18,2.6,36.2,3.3,54.3,5.1c8.5,0.8,16.9,0.8,25.4,1.7
	c9.2,1,18.5,1.9,27.7,2.8c20.4,1.9,40.8,3.4,61.2,5.3c-1.3-0.5-2.5-1-3.8-1.5c12.9-2.5,22.9,6.5,27.9,18.5c2,3,6,3,9.1,3.2
	l-2.6-14.3c4,0.4,4.4,9.4,4.6,12.2l-0.7-0.1c-2.6-9.9-4.4-20.3-9.9-29.1c-2.7-4.3-6.5-8.5-11.1-10.7c-5.7-2.8-12.3-1.1-18.4-1.3
	c0.2,0.3,0.2,0.6,0.3,0.9c-7.3,2.4-14.6,4.9-21.9,7.3"/>
<polyline class="st0" points="74.6,395.9 286.1,378.4 289.1,409.8 296.7,409.4 286.1,374.3 286.1,355 "/>
<path class="st0" d="M74.6,395.9l10.6,13.5c1.9,7.9,5.9,17.9,1.9,25.9c-3,5-11,7-14.1,12.7c4.4,0.2,2.2-2.1,0,0
	c55.1-5.7,110.1-5.7,164.8-10.2"/>
<line class="st0" x1="72.9" y1="543.9" x2="299.9" y2="525.1"/>
<path class="st0" d="M267.8,577.5"/>
<path class="st0" d="M112.2,577.5"/>
<path class="st2" d="M112.2,577.5c0,0,77.8,25.8,155.6,0"/>
<ellipse class="st6" cx="190" cy="729.3" rx="99.4" ry="15"/>
</svg>
