<?xml version="1.0" encoding="utf-8"?>
<!-- Generator: Adobe Illustrator 21.1.0, SVG Export Plug-In . SVG Version: 6.00 Build 0)  -->
<svg version="1.1" id="Capa_1" xmlns="http://www.w3.org/2000/svg" xmlns:xlink="http://www.w3.org/1999/xlink" x="0px" y="0px"
	 viewBox="0 0 58 58" style="enable-background:new 0 0 58 58;" xml:space="preserve">
<style type="text/css">
	.st0{fill:#07A4B2;}
	.st1{fill:#FFFFFF;}
</style>
<ellipse transform="matrix(0.9999 -1.198539e-02 1.198539e-02 0.9999 -0.3455 0.3497)" class="st0" cx="29" cy="29" rx="29" ry="29"/>
<g>
	<polygon class="st1" points="14,29.2 35.8,13.9 36,28.6 36.2,43.9 	"/>
	<path class="st1" d="M35.8,12.9c0.2,0,0.3,0,0.5,0.1c0.3,0.2,0.5,0.5,0.5,0.9l0.4,30c0,0.4-0.2,0.7-0.5,0.9c-0.3,0.2-0.7,0.2-1,0
		L13.4,30c-0.3-0.2-0.4-0.5-0.4-0.8c0-0.3,0.2-0.6,0.4-0.8l21.8-15.3C35.4,13,35.6,12.9,35.8,12.9z M35.2,42l-0.3-26.2L15.8,29.2
		L35.2,42z"/>
</g>
</svg>
